<svg id="visual" viewBox="0 0 1920 1080" width="1920" height="1080" xmlns="http://www.w3.org/2000/svg" xmlns:xlink="http://www.w3.org/1999/xlink" version="1.1"><path d="M0 55L175 55L175 77L349 77L349 77L524 77L524 87L698 87L698 55L873 55L873 55L1047 55L1047 98L1222 98L1222 109L1396 109L1396 152L1571 152L1571 77L1745 77L1745 109L1920 109L1920 98L1920 0L1920 0L1745 0L1745 0L1571 0L1571 0L1396 0L1396 0L1222 0L1222 0L1047 0L1047 0L873 0L873 0L698 0L698 0L524 0L524 0L349 0L349 0L175 0L175 0L0 0Z" fill="#3d3b40"></path><path d="M0 174L175 174L175 163L349 163L349 120L524 120L524 174L698 174L698 141L873 141L873 163L1047 163L1047 206L1222 206L1222 206L1396 206L1396 228L1571 228L1571 195L1745 195L1745 174L1920 174L1920 141L1920 96L1920 107L1745 107L1745 75L1571 75L1571 150L1396 150L1396 107L1222 107L1222 96L1047 96L1047 53L873 53L873 53L698 53L698 85L524 85L524 75L349 75L349 75L175 75L175 53L0 53Z" fill="#484059"></path><path d="M0 390L175 390L175 390L349 390L349 282L524 282L524 390L698 390L698 390L873 390L873 390L1047 390L1047 422L1222 422L1222 552L1396 552L1396 476L1571 476L1571 627L1745 627L1745 455L1920 455L1920 444L1920 139L1920 172L1745 172L1745 193L1571 193L1571 226L1396 226L1396 204L1222 204L1222 204L1047 204L1047 161L873 161L873 139L698 139L698 172L524 172L524 118L349 118L349 161L175 161L175 172L0 172Z" fill="#514573"></path><path d="M0 519L175 519L175 584L349 584L349 368L524 368L524 563L698 563L698 509L873 509L873 465L1047 465L1047 552L1222 552L1222 649L1396 649L1396 530L1571 530L1571 725L1745 725L1745 617L1920 617L1920 509L1920 442L1920 453L1745 453L1745 625L1571 625L1571 474L1396 474L1396 550L1222 550L1222 420L1047 420L1047 388L873 388L873 388L698 388L698 388L524 388L524 280L349 280L349 388L175 388L175 388L0 388Z" fill="#574a8f"></path><path d="M0 638L175 638L175 660L349 660L349 411L524 411L524 692L698 692L698 627L873 627L873 541L1047 541L1047 595L1222 595L1222 725L1396 725L1396 649L1571 649L1571 843L1745 843L1745 671L1920 671L1920 606L1920 507L1920 615L1745 615L1745 723L1571 723L1571 528L1396 528L1396 647L1222 647L1222 550L1047 550L1047 463L873 463L873 507L698 507L698 561L524 561L524 366L349 366L349 582L175 582L175 517L0 517Z" fill="#5a4fac"></path><path d="M0 800L175 800L175 887L349 887L349 692L524 692L524 854L698 854L698 833L873 833L873 671L1047 671L1047 757L1222 757L1222 919L1396 919L1396 757L1571 757L1571 941L1745 941L1745 854L1920 854L1920 714L1920 604L1920 669L1745 669L1745 841L1571 841L1571 647L1396 647L1396 723L1222 723L1222 593L1047 593L1047 539L873 539L873 625L698 625L698 690L524 690L524 409L349 409L349 658L175 658L175 636L0 636Z" fill="#5955cb"></path><path d="M0 1081L175 1081L175 1081L349 1081L349 1081L524 1081L524 1081L698 1081L698 1081L873 1081L873 1081L1047 1081L1047 1081L1222 1081L1222 1081L1396 1081L1396 1081L1571 1081L1571 1081L1745 1081L1745 1081L1920 1081L1920 1081L1920 712L1920 852L1745 852L1745 939L1571 939L1571 755L1396 755L1396 917L1222 917L1222 755L1047 755L1047 669L873 669L873 831L698 831L698 852L524 852L524 690L349 690L349 885L175 885L175 798L0 798Z" fill="#525ceb"></path></svg>